<svg width="2500" height="2300" viewBox="0 0 2500 2300" fill="none" xmlns="http://www.w3.org/2000/svg">
<path d="M847.616 0.336589C673.591 11.7891 520.364 109.201 437.696 260.848C407.287 316.531 388.2 377.348 380.17 444.483C376.879 470.942 376.879 527.283 380.17 553.742C384.251 587.968 392.544 627.196 400.574 650.101L403.207 657.736L400.311 658.263C212.595 696.964 64.1076 837.29 15.6649 1021.71C4.47569 1064.37 0 1100.3 0 1148.09C0 1186.13 1.71129 1205.74 7.89827 1239.58C28.0389 1349.76 86.2228 1450.99 172.446 1526.02C194.034 1544.84 228.392 1569.2 252.876 1582.89L262.223 1588.15L284.338 1549.71C310.534 1504.43 314.614 1496.14 320.801 1477.71C328.963 1453.49 331.464 1437.16 331.464 1410.05C331.332 1390.83 330.806 1383.72 328.436 1372.53C322.118 1341.99 311.982 1318.16 294.869 1292.36C269.726 1254.71 256.562 1221.15 251.297 1180.86C233.262 1043.7 329.489 918.642 466.919 900.476C486.139 897.975 524.161 899.524 540.9 901.924C561.271 904.846 599.775 907.314 620.936 903.372C701.444 888.376 746.518 802.406 723.745 723.818C717.262 706.402 705.414 684.681 686.228 660.369C649.149 613.383 627.123 559.403 627.123 499.112C627.123 360.893 738.357 249.659 876.576 249.659C961.088 249.659 1038.23 291.256 1085.49 362.209C1100.62 384.982 1117.11 409.723 1122.54 449.214L1124.06 458.305L1124.71 1140.19C1125.37 1880.52 1125.9 1834.32 1118.13 1864.33C1102.99 1923.04 1066.4 1974.25 1014.93 2008.87C932.259 2064.42 820.894 2064.42 738.225 2008.87C667.93 1961.61 627.123 1885.13 627.123 1801.01C627.123 1733.35 652.66 1671.87 700.708 1623.96C707.685 1616.98 717.163 1608.69 721.902 1605.4C726.641 1601.97 757.444 1583.94 790.354 1565.12C891.715 1507.2 904.352 1499.56 915.41 1490.21C946.213 1464.28 968.46 1428.74 979.254 1387.93C987.02 1358.71 986.757 1362.39 987.415 1258.27C987.679 1205.35 987.679 1161.91 987.284 1161.91C987.021 1161.91 913.961 1203.9 824.974 1255.11C736.119 1306.45 653.845 1353.57 642.261 1359.89C605.929 1379.77 575.652 1400.83 546.297 1426.63C463.234 1499.43 405.576 1601.05 385.699 1709.52C379.512 1743.35 377.801 1762.97 377.801 1801.01C377.801 1848.8 382.276 1884.73 393.465 1927.38C439.275 2101.93 575.652 2238.31 750.204 2284.12C792.855 2295.31 828.792 2299.79 876.576 2299.79C914.751 2299.79 934.365 2298.08 968.065 2291.89C1146.7 2258.98 1294.39 2129.71 1350.87 1957C1362.06 1922.91 1368.24 1894.47 1373.11 1855.64C1375.35 1837.47 1375.48 1804.96 1375.48 1150.06C1375.48 495.163 1375.35 462.649 1373.11 444.483C1368.24 405.65 1362.06 377.216 1350.87 343.122C1301.77 192.791 1182.9 73.9222 1032.57 24.8213C998.473 13.6321 968.723 7.18187 932.522 2.83782C915.278 0.863253 863.676 -0.716514 847.616 0.336589Z" fill="url(#paint0_linear_210_2323)"/>
<path d="M1652.38 2299.45C1826.41 2288 1979.64 2190.59 2062.3 2038.94C2092.71 1983.26 2111.8 1922.44 2119.83 1855.3C2123.12 1828.84 2123.12 1772.5 2119.83 1746.04C2115.75 1711.82 2107.46 1672.59 2099.43 1649.69L2096.79 1642.05L2099.69 1641.52C2287.4 1602.82 2435.89 1462.5 2484.33 1278.07C2495.52 1235.42 2500 1199.48 2500 1151.7C2500 1113.66 2498.29 1094.04 2492.1 1060.21C2471.96 950.03 2413.78 848.801 2327.55 773.767C2305.97 754.943 2271.61 730.59 2247.12 716.9L2237.78 711.634L2215.66 750.073C2189.47 795.356 2185.39 803.649 2179.2 822.078C2171.04 846.3 2168.54 862.623 2168.54 889.74C2168.67 908.959 2169.19 916.068 2171.56 927.257C2177.88 957.797 2188.02 981.623 2205.13 1007.42C2230.27 1045.07 2243.44 1078.64 2248.7 1118.92C2266.74 1256.09 2170.51 1381.14 2033.08 1399.31C2013.86 1401.81 1975.84 1400.26 1959.1 1397.86C1938.73 1394.94 1900.23 1392.47 1879.06 1396.41C1798.56 1411.41 1753.48 1497.38 1776.26 1575.97C1782.74 1593.39 1794.59 1615.11 1813.77 1639.42C1850.85 1686.4 1872.88 1740.38 1872.88 1800.67C1872.88 1938.89 1761.64 2050.13 1623.42 2050.13C1538.91 2050.13 1461.77 2008.53 1414.51 1937.58C1399.38 1914.8 1382.89 1890.06 1377.46 1850.57L1375.94 1841.48L1375.29 1159.6C1374.63 419.267 1374.1 465.471 1381.87 435.458C1397.01 376.748 1433.6 325.54 1485.07 290.92C1567.74 235.369 1679.11 235.369 1761.78 290.92C1832.07 338.178 1872.88 414.659 1872.88 498.776C1872.88 566.438 1847.34 627.913 1799.29 675.829C1792.31 682.806 1782.84 691.099 1778.1 694.39C1773.36 697.812 1742.56 715.847 1709.65 734.671C1608.29 792.592 1595.65 800.227 1584.59 809.573C1553.79 835.506 1531.54 871.048 1520.75 911.855C1512.98 941.079 1513.24 937.393 1512.58 1041.52C1512.32 1094.44 1512.32 1137.88 1512.72 1137.88C1512.98 1137.88 1586.04 1095.89 1675.03 1044.68C1763.88 993.339 1846.15 946.213 1857.74 939.894C1894.07 920.017 1924.35 898.955 1953.7 873.154C2036.77 800.358 2094.42 698.734 2114.3 590.264C2120.49 556.433 2122.2 536.819 2122.2 498.776C2122.2 450.991 2117.72 415.054 2106.53 372.404C2060.72 197.852 1924.35 61.475 1749.8 15.665C1707.15 4.47579 1671.21 0.000102851 1623.42 0.000102851C1585.25 0.000102851 1565.63 1.71139 1531.94 7.89837C1353.3 40.8078 1205.61 170.076 1149.13 342.785C1137.94 376.879 1131.76 405.313 1126.89 444.146C1124.65 462.312 1124.52 494.827 1124.52 1149.73C1124.52 1804.62 1124.65 1837.14 1126.89 1855.3C1131.76 1894.14 1137.94 1922.57 1149.13 1956.67C1198.23 2107 1317.1 2225.86 1467.43 2274.97C1501.53 2286.15 1531.28 2292.6 1567.48 2296.95C1584.72 2298.92 1636.32 2300.5 1652.38 2299.45Z" fill="url(#paint1_linear_210_2323)"/>
<defs>
<linearGradient id="paint0_linear_210_2323" x1="1249.9" y1="0" x2="1249.9" y2="2299.38" gradientUnits="userSpaceOnUse">
<stop stop-color="#6BD9FB"/>
<stop offset="0.505" stop-color="#6391FF"/>
<stop offset="1" stop-color="#7D50FF"/>
</linearGradient>
<linearGradient id="paint1_linear_210_2323" x1="1249.9" y1="0" x2="1249.9" y2="2299.38" gradientUnits="userSpaceOnUse">
<stop stop-color="#6BD9FB"/>
<stop offset="0.505" stop-color="#6391FF"/>
<stop offset="1" stop-color="#7D50FF"/>
</linearGradient>
</defs>
</svg>
