<svg width="56" height="56" viewBox="0 0 56 56" fill="none" xmlns="http://www.w3.org/2000/svg">
<rect x="0.5" y="0.5" width="55" height="55" rx="11.5" fill="white"/>
<rect x="0.5" y="0.5" width="55" height="55" rx="11.5" stroke="#EDEDED"/>
<g clip-path="url(#clip0_96_3898)">
<path d="M14.1818 40.381H19.2727V27.8212L12 22.28V38.1646C12 39.391 12.9782 40.381 14.1818 40.381Z" fill="#4285F4"/>
<path d="M36.7275 40.381H41.8184C43.0257 40.381 44.0003 39.3873 44.0003 38.1646V22.28L36.7275 27.8212" fill="#34A853"/>
<path d="M36.7275 18.2164V27.821L44.0003 22.2799V19.3246C44.0003 16.5836 40.9203 15.021 38.7639 16.6649" fill="#FBBC04"/>
<path d="M19.2725 27.8212V18.2166L27.9997 24.8659L36.727 18.2166V27.8212L27.9997 34.4705" fill="#EA4335"/>
<path d="M12 19.3246V22.2799L19.2727 27.821V18.2164L17.2364 16.6649C15.0764 15.021 12 16.5836 12 19.3246Z" fill="#C5221F"/>
</g>
<defs>
<clipPath id="clip0_96_3898">
<rect width="32" height="24.381" fill="white" transform="translate(12 16)"/>
</clipPath>
</defs>
</svg>
