<svg width="56" height="56" viewBox="0 0 56 56" fill="none" xmlns="http://www.w3.org/2000/svg">
<rect x="0.5" y="0.5" width="55" height="55" rx="11.5" fill="white"/>
<rect x="0.5" y="0.5" width="55" height="55" rx="11.5" stroke="#EDEDED"/>
<g clip-path="url(#clip0_96_3953)">
<path d="M14.4192 38.504L15.8305 40.9416C16.1237 41.4547 16.5452 41.8579 17.0401 42.1512L22.0802 33.4272H12C12 33.9954 12.1466 34.5636 12.4399 35.0767L14.4192 38.504Z" fill="#0066DA"/>
<path d="M28 23.1639L22.9599 14.4399C22.4651 14.7332 22.0435 15.1364 21.7503 15.6496L12.4399 31.7779C12.152 32.28 12.0004 32.8486 12 33.4273H22.0802L28 23.1639Z" fill="#00AC47"/>
<path d="M38.9598 42.1512C39.4546 41.8579 39.8761 41.4547 40.1694 40.9416L40.7559 39.9335L43.56 35.0767C43.8532 34.5636 43.9999 33.9954 43.9999 33.4272H33.9189L36.064 37.6426L38.9598 42.1512Z" fill="#EA4335"/>
<path d="M28.0001 23.1638L33.0401 14.4399C32.5453 14.1466 31.9771 14 31.3907 14H24.6094C24.023 14 23.4548 14.1649 22.96 14.4399L28.0001 23.1638Z" fill="#00832D"/>
<path d="M33.9198 33.4272H22.0801L17.04 42.1512C17.5349 42.4444 18.103 42.591 18.6895 42.591H37.3104C37.8969 42.591 38.465 42.4261 38.9599 42.1512L33.9198 33.4272Z" fill="#2684FC"/>
<path d="M38.9049 23.7137L34.2497 15.6496C33.9565 15.1364 33.5349 14.7332 33.0401 14.4399L28 23.1639L33.9198 33.4273H43.9817C43.9817 32.8592 43.8351 32.291 43.5418 31.7779L38.9049 23.7137Z" fill="#FFBA00"/>
</g>
<defs>
<clipPath id="clip0_96_3953">
<rect width="32" height="28.5911" fill="white" transform="translate(12 14)"/>
</clipPath>
</defs>
</svg>
