<svg width="56" height="56" viewBox="0 0 56 56" fill="none" xmlns="http://www.w3.org/2000/svg">
<rect x="0.5" y="0.5" width="55" height="55" rx="11.5" fill="white"/>
<rect x="0.5" y="0.5" width="55" height="55" rx="11.5" stroke="#EDEDED"/>
<g clip-path="url(#clip0_96_3934)">
<path d="M24.2564 27.5898C18.5867 27.5898 14 32.1765 14 37.8462V42.1539C14 43.1734 14.8267 44.0001 15.8461 44.0001H20.7692L25.6923 27.5898H24.2564Z" fill="#86A9FF"/>
<path d="M41.0771 34.3591C41.0771 30.6175 38.0493 27.5898 34.3078 27.5898H29.3848V44.0001H34.3078C38.0494 44.0001 41.0771 40.9724 41.0771 37.2309" fill="#578CFF"/>
<path d="M18.9229 34.3591C18.9229 30.6175 21.9506 27.5898 25.6921 27.5898H29.3844C33.1259 27.5898 36.1536 30.6176 36.1536 34.3591V37.2309C36.1536 40.9724 33.1259 44.0001 29.3844 44.0001H20.769C19.7495 44.0001 18.9229 43.1734 18.9229 42.1539V34.3591Z" fill="#0057CC"/>
<path d="M27.5387 24.718C31.0506 24.718 33.8976 21.8709 33.8976 18.359C33.8976 14.847 31.0506 12 27.5387 12C24.0267 12 21.1797 14.847 21.1797 18.359C21.1797 21.8709 24.0267 24.718 27.5387 24.718Z" fill="#0057CC"/>
</g>
<defs>
<clipPath id="clip0_96_3934">
<rect width="27.0769" height="32" fill="white" transform="translate(14 12)"/>
</clipPath>
</defs>
</svg>
