<svg width="56" height="56" viewBox="0 0 56 56" fill="none" xmlns="http://www.w3.org/2000/svg">
<rect x="0.5" y="0.5" width="55" height="55" rx="11.5" fill="white"/>
<rect x="0.5" y="0.5" width="55" height="55" rx="11.5" stroke="#EDEDED"/>
<g clip-path="url(#clip0_96_3915)">
<path d="M36.4206 19.5789L28.8418 18.7368L19.5786 19.5789L18.7363 28L19.5784 36.4211L27.9995 37.4738L36.4206 36.4211L37.2627 27.7896L36.4206 19.5789Z" fill="white"/>
<path d="M23.0337 32.6442C22.4042 32.2189 21.9684 31.598 21.7305 30.7769L23.1916 30.1748C23.3242 30.6801 23.5557 31.0716 23.8863 31.3495C24.2148 31.6274 24.6148 31.7642 25.0821 31.7642C25.5601 31.7642 25.9706 31.6189 26.3137 31.3284C26.6567 31.0378 26.8295 30.6673 26.8295 30.2189C26.8295 29.7601 26.6484 29.3852 26.2863 29.0948C25.9242 28.8044 25.4695 28.6589 24.9263 28.6589H24.0821V27.2127H24.8399C25.3073 27.2127 25.701 27.0865 26.021 26.8338C26.341 26.5812 26.501 26.2359 26.501 25.7959C26.501 25.4044 26.3578 25.0927 26.0716 24.8591C25.7853 24.6255 25.4231 24.5076 24.9831 24.5076C24.5537 24.5076 24.2125 24.6213 23.9599 24.8508C23.7073 25.0802 23.5241 25.3623 23.4084 25.6949L21.9621 25.0929C22.1537 24.5497 22.5053 24.0697 23.021 23.6549C23.5369 23.2402 24.1957 23.0317 24.9957 23.0317C25.5873 23.0317 26.1199 23.1455 26.5916 23.3749C27.0631 23.6044 27.4337 23.9223 27.701 24.3265C27.9684 24.7327 28.101 25.1876 28.101 25.6927C28.101 26.2085 27.9769 26.6442 27.7284 27.0021C27.4799 27.3601 27.1746 27.6337 26.8125 27.8253V27.9116C27.2905 28.1116 27.6799 28.4169 27.9873 28.8274C28.2925 29.238 28.4461 29.7285 28.4461 30.3012C28.4461 30.8738 28.3009 31.3853 28.0103 31.8338C27.7197 32.2823 27.3177 32.6359 26.8082 32.8927C26.2967 33.1495 25.722 33.2801 25.0841 33.2801C24.3452 33.2821 23.6631 33.0695 23.0337 32.6442Z" fill="#1A73E8"/>
<path d="M32.0005 25.3939L30.4046 26.5539L29.6025 25.3371L32.4805 23.2612H33.5837V33.0528H32.0005V25.3939Z" fill="#1A73E8"/>
<path d="M36.4215 44.0001L44.0003 36.4212L40.2109 34.7371L36.4215 36.4212L34.7373 40.2107L36.4215 44.0001Z" fill="#EA4335"/>
<path d="M17.8945 40.2106L19.5787 44H36.4208V36.4211H19.5787L17.8945 40.2106Z" fill="#34A853"/>
<path d="M14.5262 12C13.1306 12 12 13.1306 12 14.5262V36.421L15.7894 38.1051L19.5789 36.421V19.5789H36.421L38.1051 15.7894L36.4211 12H14.5262Z" fill="#4285F4"/>
<path d="M12 36.4211V41.4738C12 42.8696 13.1306 44 14.5262 44H19.5789V36.4211H12Z" fill="#188038"/>
<path d="M36.4209 19.5789V36.421H43.9998V19.5789L40.2103 17.8948L36.4209 19.5789Z" fill="#FBBC04"/>
<path d="M43.9998 19.5789V14.5262C43.9998 13.1304 42.8692 12 41.4735 12H36.4209V19.5789H43.9998Z" fill="#1967D2"/>
</g>
<defs>
<clipPath id="clip0_96_3915">
<rect width="32" height="32" fill="white" transform="translate(12 12)"/>
</clipPath>
</defs>
</svg>
