<svg width="22" height="22" viewBox="0 0 22 22" fill="none" xmlns="http://www.w3.org/2000/svg">
<path fill-rule="evenodd" clip-rule="evenodd" d="M5.911 1.60419C5.0874 1.60416 4.4006 1.60414 3.85539 1.67744C3.27991 1.75481 2.76034 1.92501 2.34283 2.34252C1.92532 2.76004 1.75512 3.27961 1.67775 3.85508C1.60445 4.40029 1.60447 5.08707 1.60449 5.91067V6.00602C1.60447 6.82962 1.60445 7.51642 1.67775 8.06163C1.75512 8.63711 1.92532 9.15667 2.34283 9.57419C2.76034 9.9917 3.27991 10.1619 3.85539 10.2393C4.4006 10.3126 5.08738 10.3126 5.91097 10.3125H6.00632C6.82992 10.3126 7.51672 10.3126 8.06193 10.2393C8.63741 10.1619 9.15698 9.9917 9.57449 9.57419C9.99201 9.15667 10.1622 8.63711 10.2396 8.06163C10.3129 7.51642 10.3129 6.82964 10.3128 6.00605V5.9107C10.3129 5.0871 10.3129 4.40029 10.2396 3.85508C10.1622 3.27961 9.99201 2.76004 9.57449 2.34252C9.15698 1.92501 8.63741 1.75481 8.06193 1.67744C7.51672 1.60414 6.82995 1.60416 6.00635 1.60419H5.911ZM3.3151 3.3148C3.43456 3.19534 3.6156 3.09705 4.0386 3.04018C4.48139 2.98065 5.07498 2.97919 5.95866 2.97919C6.84234 2.97919 7.43594 2.98065 7.87872 3.04018C8.30173 3.09705 8.48276 3.19534 8.60222 3.3148C8.72168 3.43425 8.81997 3.61529 8.87684 4.0383C8.93637 4.48108 8.93783 5.07468 8.93783 5.95836C8.93783 6.84203 8.93637 7.43563 8.87684 7.87841C8.81997 8.30142 8.72168 8.48246 8.60222 8.60192C8.48276 8.72137 8.30173 8.81966 7.87872 8.87653C7.43594 8.93606 6.84234 8.93752 5.95866 8.93752C5.07498 8.93752 4.48139 8.93606 4.0386 8.87653C3.6156 8.81966 3.43456 8.72137 3.3151 8.60192C3.19565 8.48246 3.09736 8.30142 3.04049 7.87841C2.98096 7.43563 2.9795 6.84203 2.9795 5.95836C2.9795 5.07468 2.98096 4.48108 3.04049 4.0383C3.09736 3.61529 3.19565 3.43425 3.3151 3.3148Z" fill="#969DA9"/>
<path d="M16.7295 3.20836C16.7295 2.82866 16.4217 2.52086 16.042 2.52086C15.6623 2.52086 15.3545 2.82866 15.3545 3.20836V5.27086H13.292C12.9123 5.27086 12.6045 5.57866 12.6045 5.95836C12.6045 6.33805 12.9123 6.64586 13.292 6.64586H15.3545V8.70836C15.3545 9.08805 15.6623 9.39586 16.042 9.39586C16.4217 9.39586 16.7295 9.08805 16.7295 8.70836V6.64586H18.792C19.1717 6.64586 19.4795 6.33805 19.4795 5.95836C19.4795 5.57866 19.1717 5.27086 18.792 5.27086H16.7295V3.20836Z" fill="#969DA9"/>
<path fill-rule="evenodd" clip-rule="evenodd" d="M15.9943 11.6875H16.0897C16.9133 11.6875 17.6001 11.6875 18.1453 11.7608C18.7207 11.8381 19.2403 12.0083 19.6578 12.4259C20.0753 12.8434 20.2455 13.3629 20.3229 13.9384C20.3962 14.4836 20.3962 15.1704 20.3962 15.994V16.0894C20.3962 16.9129 20.3962 17.5998 20.3229 18.145C20.2455 18.7204 20.0753 19.24 19.6578 19.6575C19.2403 20.075 18.7207 20.2452 18.1453 20.3226C17.6001 20.3959 16.9133 20.3959 16.0897 20.3959H15.9943C15.1708 20.3959 14.4839 20.3959 13.9387 20.3226C13.3632 20.2452 12.8437 20.075 12.4262 19.6575C12.0086 19.24 11.8385 18.7204 11.7611 18.145C11.6878 17.5997 11.6878 16.913 11.6878 16.0894V15.994C11.6878 15.1704 11.6878 14.4836 11.7611 13.9384C11.8385 13.3629 12.0086 12.8434 12.4262 12.4259C12.8437 12.0083 13.3632 11.8381 13.9387 11.7608C14.4839 11.6875 15.1707 11.6875 15.9943 11.6875ZM14.1219 13.1235C13.6989 13.1804 13.5179 13.2787 13.3984 13.3981C13.279 13.5176 13.1807 13.6986 13.1238 14.1216C13.0643 14.5644 13.0628 15.158 13.0628 16.0417C13.0628 16.9254 13.0643 17.519 13.1238 17.9617C13.1807 18.3848 13.279 18.5658 13.3984 18.6852C13.5179 18.8047 13.6989 18.903 14.1219 18.9599C14.5647 19.0194 15.1583 19.0209 16.042 19.0209C16.9257 19.0209 17.5193 19.0194 17.9621 18.9599C18.3851 18.903 18.5661 18.8047 18.6856 18.6852C18.805 18.5658 18.9033 18.3848 18.9602 17.9617C19.0197 17.519 19.0212 16.9254 19.0212 16.0417C19.0212 15.158 19.0197 14.5644 18.9602 14.1216C18.9033 13.6986 18.805 13.5176 18.6856 13.3981C18.5661 13.2787 18.3851 13.1804 17.9621 13.1235C17.5193 13.064 16.9257 13.0625 16.042 13.0625C15.1583 13.0625 14.5647 13.064 14.1219 13.1235Z" fill="#969DA9"/>
<path fill-rule="evenodd" clip-rule="evenodd" d="M5.911 11.6875C5.08739 11.6875 4.4006 11.6875 3.85539 11.7608C3.27991 11.8381 2.76034 12.0083 2.34283 12.4259C1.92532 12.8434 1.75512 13.3629 1.67775 13.9384C1.60445 14.4836 1.60447 15.1704 1.60449 15.994V16.0894C1.60447 16.913 1.60445 17.5998 1.67775 18.145C1.75512 18.7204 1.92532 19.24 2.34283 19.6575C2.76034 20.075 3.27991 20.2452 3.85539 20.3226C4.4006 20.3959 5.08738 20.3959 5.91097 20.3959H6.00632C6.82992 20.3959 7.51672 20.3959 8.06193 20.3226C8.63741 20.2452 9.15698 20.075 9.57449 19.6575C9.99201 19.24 10.1622 18.7204 10.2396 18.145C10.3129 17.5998 10.3129 16.913 10.3128 16.0894V15.994C10.3129 15.1704 10.3129 14.4836 10.2396 13.9384C10.1622 13.3629 9.99201 12.8434 9.57449 12.4259C9.15698 12.0083 8.63741 11.8381 8.06193 11.7608C7.51672 11.6875 6.82993 11.6875 6.00633 11.6875H5.911ZM3.3151 13.3981C3.43456 13.2787 3.6156 13.1804 4.0386 13.1235C4.48139 13.064 5.07498 13.0625 5.95866 13.0625C6.84234 13.0625 7.43594 13.064 7.87872 13.1235C8.30173 13.1804 8.48276 13.2787 8.60222 13.3981C8.72168 13.5176 8.81997 13.6986 8.87684 14.1216C8.93637 14.5644 8.93783 15.158 8.93783 16.0417C8.93783 16.9254 8.93637 17.519 8.87684 17.9617C8.81997 18.3848 8.72168 18.5658 8.60222 18.6852C8.48276 18.8047 8.30173 18.903 7.87872 18.9599C7.43594 19.0194 6.84234 19.0209 5.95866 19.0209C5.07498 19.0209 4.48139 19.0194 4.0386 18.9599C3.6156 18.903 3.43456 18.8047 3.3151 18.6852C3.19565 18.5658 3.09736 18.3848 3.04049 17.9617C2.98096 17.519 2.9795 16.9254 2.9795 16.0417C2.9795 15.158 2.98096 14.5644 3.04049 14.1216C3.09736 13.6986 3.19565 13.5176 3.3151 13.3981Z" fill="#969DA9"/>
</svg>
