<svg width="22" height="22" viewBox="0 0 22 22" fill="none" xmlns="http://www.w3.org/2000/svg">
<path fill-rule="evenodd" clip-rule="evenodd" d="M10.9997 2.52087C6.31676 2.52087 2.52051 6.31713 2.52051 11C2.52051 12.3577 2.83907 13.6389 3.4049 14.775C3.632 15.2309 3.71946 15.7761 3.57617 16.3116L3.0302 18.3522C2.92992 18.7269 3.27278 19.0698 3.64754 18.9695L5.68808 18.4235C6.22359 18.2803 6.76881 18.3677 7.22476 18.5948C8.36078 19.1606 9.64204 19.4792 10.9997 19.4792C15.6826 19.4792 19.4788 15.683 19.4788 11C19.4788 6.31713 15.6826 2.52087 10.9997 2.52087ZM1.14551 11C1.14551 5.55773 5.55737 1.14587 10.9997 1.14587C16.442 1.14587 20.8538 5.55773 20.8538 11C20.8538 16.4423 16.442 20.8542 10.9997 20.8542C9.42456 20.8542 7.93391 20.4841 6.61173 19.8256C6.41442 19.7273 6.21297 19.7065 6.04348 19.7518L4.00294 20.2978C2.60609 20.6715 1.32818 19.3936 1.70192 17.9968L2.2479 15.9562C2.29324 15.7867 2.2724 15.5853 2.17412 15.388C1.51557 14.0658 1.14551 12.5752 1.14551 11ZM6.64551 9.62504C6.64551 9.24535 6.95331 8.93754 7.33301 8.93754H14.6663C15.046 8.93754 15.3538 9.24535 15.3538 9.62504C15.3538 10.0047 15.046 10.3125 14.6663 10.3125H7.33301C6.95331 10.3125 6.64551 10.0047 6.64551 9.62504ZM6.64551 12.8334C6.64551 12.4537 6.95331 12.1459 7.33301 12.1459H12.3747C12.7544 12.1459 13.0622 12.4537 13.0622 12.8334C13.0622 13.2131 12.7544 13.5209 12.3747 13.5209H7.33301C6.95331 13.5209 6.64551 13.2131 6.64551 12.8334Z" fill="#969DA9"/>
</svg>
