<svg width="22" height="22" viewBox="0 0 22 22" fill="none" xmlns="http://www.w3.org/2000/svg">
<path d="M10.9997 16.2708C11.3794 16.2708 11.6872 15.963 11.6872 15.5833V10.0833C11.6872 9.70363 11.3794 9.39583 10.9997 9.39583C10.62 9.39583 10.3122 9.70363 10.3122 10.0833V15.5833C10.3122 15.963 10.62 16.2708 10.9997 16.2708Z" fill="#969DA9"/>
<path d="M10.9997 6.41666C11.5059 6.41666 11.9163 6.82707 11.9163 7.33333C11.9163 7.83959 11.5059 8.25 10.9997 8.25C10.4934 8.25 10.083 7.83959 10.083 7.33333C10.083 6.82707 10.4934 6.41666 10.9997 6.41666Z" fill="#969DA9"/>
<path fill-rule="evenodd" clip-rule="evenodd" d="M1.14551 11C1.14551 5.55769 5.55737 1.14583 10.9997 1.14583C16.442 1.14583 20.8538 5.55769 20.8538 11C20.8538 16.4423 16.442 20.8542 10.9997 20.8542C5.55737 20.8542 1.14551 16.4423 1.14551 11ZM10.9997 2.52083C6.31676 2.52083 2.52051 6.31708 2.52051 11C2.52051 15.6829 6.31676 19.4792 10.9997 19.4792C15.6826 19.4792 19.4788 15.6829 19.4788 11C19.4788 6.31708 15.6826 2.52083 10.9997 2.52083Z" fill="#969DA9"/>
</svg>
