<svg width="22" height="22" viewBox="0 0 22 22" fill="none" xmlns="http://www.w3.org/2000/svg">
<rect width="22" height="22" fill="white"/>
<path d="M13.7503 19.4606C13.7503 19.8403 14.0581 20.1481 14.4378 20.1481C14.8175 20.1481 15.1253 19.8403 15.1253 19.4606L15.1253 2.50548C15.1253 2.12578 14.8175 1.81798 14.4378 1.81798C14.0581 1.81798 13.7503 2.12578 13.7503 2.50548L13.7503 19.4606Z" fill="#969DA9"/>
<path fill-rule="evenodd" clip-rule="evenodd" d="M20.8545 11.0526L20.8545 10.9474C20.8545 8.83142 20.8545 7.17313 20.6806 5.87927C20.5025 4.55493 20.1309 3.50991 19.3107 2.68967C18.4905 1.86942 17.4454 1.49786 16.1211 1.31981C14.8272 1.14585 13.169 1.14586 11.0529 1.14587L10.9477 1.14587C8.83171 1.14586 7.17342 1.14585 5.87955 1.31981C4.55521 1.49786 3.51019 1.86942 2.68995 2.68967C1.86971 3.50991 1.49815 4.55493 1.32009 5.87927C1.14614 7.17313 1.14615 8.83142 1.14616 10.9474L1.14616 11.0526C1.14615 13.1687 1.14614 14.8269 1.32009 16.1208C1.49815 17.4452 1.86971 18.4902 2.68995 19.3104C3.51019 20.1307 4.55521 20.5022 5.87955 20.6803C7.17342 20.8542 8.8317 20.8542 10.9477 20.8542L11.0529 20.8542C13.1689 20.8542 14.8272 20.8542 16.1211 20.6803C17.4454 20.5022 18.4905 20.1307 19.3107 19.3104C20.1309 18.4902 20.5025 17.4452 20.6806 16.1208C20.8545 14.827 20.8545 13.1687 20.8545 11.0526ZM18.3384 3.66194C18.8606 4.18412 19.1603 4.89062 19.3178 6.06249C19.478 7.25413 19.4795 8.82 19.4795 11C19.4795 13.1801 19.478 14.7459 19.3178 15.9376C19.1603 17.1095 18.8606 17.816 18.3384 18.3381C17.8162 18.8603 17.1097 19.16 15.9379 19.3175C14.7462 19.4777 13.1804 19.4792 11.0003 19.4792C8.82028 19.4792 7.25442 19.4777 6.06277 19.3175C4.8909 19.16 4.18441 18.8603 3.66222 18.3381C3.14004 17.816 2.84039 17.1095 2.68283 15.9376C2.52262 14.7459 2.52116 13.1801 2.52116 11C2.52116 8.82 2.52262 7.25413 2.68283 6.06249C2.84039 4.89062 3.14004 4.18412 3.66222 3.66194C4.18441 3.13975 4.8909 2.8401 6.06277 2.68255C7.25442 2.52233 8.82029 2.52087 11.0003 2.52087C13.1804 2.52087 14.7462 2.52233 15.9379 2.68255C17.1097 2.8401 17.8162 3.13975 18.3384 3.66194Z" fill="#969DA9"/>
<path d="M10.3406 7.53474C10.6091 7.80322 10.6091 8.23852 10.3406 8.50701L8.07676 10.7709L10.3406 13.0347C10.6091 13.3032 10.6091 13.7385 10.3406 14.007C10.0721 14.2755 9.63684 14.2755 9.36836 14.007L6.61836 11.257C6.34987 10.9885 6.34987 10.5532 6.61836 10.2847L9.36836 7.53474C9.63684 7.26625 10.0721 7.26625 10.3406 7.53474Z" fill="#969DA9"/>
</svg>
