<svg width="22" height="22" viewBox="0 0 22 22" fill="none" xmlns="http://www.w3.org/2000/svg">
<path fill-rule="evenodd" clip-rule="evenodd" d="M11.0004 1.14587C7.07692 1.14587 3.89628 4.32652 3.89628 8.25004V8.89547C3.89628 9.53431 3.70718 10.1589 3.35281 10.6904L2.29992 12.2697C1.07792 14.1028 2.01082 16.5943 4.13619 17.1739C4.82884 17.3628 5.52733 17.5226 6.22987 17.6533L6.23161 17.658C6.93652 19.5389 8.82056 20.8542 11.0004 20.8542C13.1802 20.8542 15.0642 19.5389 15.7692 17.658L15.7709 17.6533C16.4735 17.5226 17.172 17.3628 17.8647 17.1739C19.9901 16.5943 20.923 14.1028 19.701 12.2697L18.6481 10.6904C18.2937 10.1589 18.1046 9.53431 18.1046 8.89547V8.25004C18.1046 4.32652 14.924 1.14587 11.0004 1.14587ZM14.0955 17.9089C12.0394 18.1546 9.96131 18.1546 7.90527 17.9089C8.55698 18.8453 9.6905 19.4792 11.0004 19.4792C12.3103 19.4792 13.4438 18.8453 14.0955 17.9089ZM5.27128 8.25004C5.27128 5.08591 7.83631 2.52087 11.0004 2.52087C14.1646 2.52087 16.7296 5.08591 16.7296 8.25004V8.89547C16.7296 9.80577 16.9991 10.6957 17.504 11.4531L18.5569 13.0325C19.2583 14.0846 18.7228 15.5147 17.5029 15.8474C13.2457 17.0084 8.75521 17.0084 4.49798 15.8474C3.27805 15.5147 2.74258 14.0846 3.44399 13.0325L4.49688 11.4531C5.00183 10.6957 5.27128 9.80577 5.27128 8.89547V8.25004Z" fill="#8F8BA0"/>
</svg>
