<svg width="22" height="22" viewBox="0 0 22 22" fill="none" xmlns="http://www.w3.org/2000/svg">
<path fill-rule="evenodd" clip-rule="evenodd" d="M10.9997 2.52081C6.31676 2.52081 2.52051 6.31707 2.52051 11C2.52051 15.6829 6.31676 19.4791 10.9997 19.4791C15.6826 19.4791 19.4788 15.6829 19.4788 11C19.4788 6.31707 15.6826 2.52081 10.9997 2.52081ZM1.14551 11C1.14551 5.55767 5.55737 1.14581 10.9997 1.14581C16.442 1.14581 20.8538 5.55767 20.8538 11C20.8538 16.4423 16.442 20.8541 10.9997 20.8541C5.55737 20.8541 1.14551 16.4423 1.14551 11ZM7.69736 14.2573C7.92346 13.9522 8.35403 13.8882 8.65907 14.1143C9.32671 14.6092 10.1326 14.8958 10.9997 14.8958C11.8667 14.8958 12.6726 14.6092 13.3403 14.1143C13.6453 13.8882 14.0759 13.9522 14.302 14.2573C14.5281 14.5623 14.4641 14.9929 14.1591 15.219C13.2677 15.8797 12.1776 16.2708 10.9997 16.2708C9.82178 16.2708 8.73166 15.8797 7.84028 15.219C7.53524 14.9929 7.47126 14.5623 7.69736 14.2573Z" fill="#969DA9"/>
<path d="M14.6663 9.62498C14.6663 10.3844 14.2559 11 13.7497 11C13.2434 11 12.833 10.3844 12.833 9.62498C12.833 8.86559 13.2434 8.24998 13.7497 8.24998C14.2559 8.24998 14.6663 8.86559 14.6663 9.62498Z" fill="#969DA9"/>
<path d="M9.16634 9.62498C9.16634 10.3844 8.75594 11 8.24967 11C7.74341 11 7.33301 10.3844 7.33301 9.62498C7.33301 8.86559 7.74341 8.24998 8.24967 8.24998C8.75594 8.24998 9.16634 8.86559 9.16634 9.62498Z" fill="#969DA9"/>
</svg>
