<svg width="22" height="22" viewBox="0 0 22 22" fill="none" xmlns="http://www.w3.org/2000/svg">
<path fill-rule="evenodd" clip-rule="evenodd" d="M11 7.56248C9.10148 7.56248 7.56246 9.1015 7.56246 11C7.56246 12.8985 9.10148 14.4375 11 14.4375C12.8984 14.4375 14.4375 12.8985 14.4375 11C14.4375 9.1015 12.8984 7.56248 11 7.56248ZM8.93746 11C8.93746 9.86089 9.86088 8.93748 11 8.93748C12.139 8.93748 13.0625 9.86089 13.0625 11C13.0625 12.1391 12.139 13.0625 11 13.0625C9.86088 13.0625 8.93746 12.1391 8.93746 11Z" fill="#969DA9"/>
<path fill-rule="evenodd" clip-rule="evenodd" d="M10.9768 1.14581C10.5694 1.14581 10.2293 1.1458 9.95003 1.16485C9.65936 1.18469 9.38479 1.22744 9.1186 1.3377C8.50093 1.59355 8.01019 2.08429 7.75434 2.70197C7.62114 3.02353 7.58507 3.36242 7.5713 3.73078C7.56022 4.02689 7.41078 4.27395 7.19025 4.40127C6.96971 4.5286 6.68104 4.53448 6.41907 4.39602C6.09317 4.22377 5.78164 4.08556 5.43656 4.04013C4.77371 3.95286 4.10334 4.13248 3.57294 4.53948C3.34435 4.71488 3.17004 4.93128 3.00753 5.1731C2.85142 5.40539 2.68136 5.69995 2.47766 6.05279L2.4545 6.09289C2.25079 6.44572 2.08073 6.74027 1.95761 6.99161C1.82945 7.25326 1.72919 7.51242 1.69159 7.79807C1.60432 8.46092 1.78395 9.13128 2.19094 9.66169C2.4028 9.93779 2.67821 10.1385 2.99028 10.3345C3.24125 10.4922 3.38051 10.7452 3.3805 11C3.38049 11.2547 3.24122 11.5076 2.99029 11.6653C2.67818 11.8614 2.40273 12.0621 2.19085 12.3382C1.78386 12.8686 1.60423 13.539 1.6915 14.2018C1.72911 14.4875 1.82936 14.7466 1.95752 15.0083C2.08063 15.2596 2.25069 15.5542 2.45441 15.907L2.47756 15.9471C2.68127 16.3 2.85133 16.5945 3.00744 16.8268C3.16995 17.0686 3.34426 17.285 3.57285 17.4604C4.10326 17.8674 4.77362 18.047 5.43647 17.9598C5.78153 17.9143 6.09304 17.7761 6.41892 17.6039C6.68093 17.4654 6.96964 17.4713 7.1902 17.5987C7.41077 17.726 7.56022 17.9731 7.5713 18.2692C7.58507 18.6376 7.62115 18.9764 7.75434 19.298C8.01019 19.9157 8.50093 20.4064 9.1186 20.6623C9.38479 20.7725 9.65936 20.8153 9.95003 20.8351C10.2293 20.8542 10.5694 20.8542 10.9768 20.8541H11.0231C11.4305 20.8542 11.7706 20.8542 12.0499 20.8351C12.3405 20.8153 12.6151 20.7725 12.8813 20.6623C13.499 20.4064 13.9897 19.9157 14.2456 19.298C14.3788 18.9764 14.4148 18.6375 14.4286 18.2691C14.4397 17.973 14.5891 17.726 14.8096 17.5986C15.0302 17.4713 15.3189 17.4654 15.5809 17.6039C15.9068 17.7761 16.2183 17.9143 16.5633 17.9597C17.2262 18.047 17.8966 17.8673 18.427 17.4604C18.6556 17.285 18.8299 17.0686 18.9924 16.8267C19.1485 16.5945 19.3185 16.2999 19.5222 15.9471L19.5454 15.907C19.7491 15.5542 19.9192 15.2596 20.0423 15.0082C20.1705 14.7466 20.2707 14.4874 20.3083 14.2018C20.3956 13.5389 20.216 12.8686 19.809 12.3381C19.5971 12.062 19.3217 11.8614 19.0096 11.6653C18.7586 11.5076 18.6194 11.2546 18.6194 10.9999C18.6194 10.7453 18.7587 10.4923 19.0096 10.3347C19.3217 10.1386 19.5972 9.9379 19.809 9.66176C20.216 9.13135 20.3957 8.46098 20.3084 7.79814C20.2708 7.51248 20.1705 7.25332 20.0424 6.99167C19.9193 6.74035 19.7492 6.44582 19.5455 6.09302L19.5224 6.05289C19.3187 5.70005 19.1486 5.40546 18.9925 5.17316C18.83 4.93135 18.6556 4.71494 18.4271 4.53955C17.8966 4.13255 17.2263 3.95292 16.5634 4.04019C16.2184 4.08562 15.9069 4.22381 15.581 4.39605C15.319 4.53453 15.0303 4.52864 14.8097 4.4013C14.5891 4.27396 14.4397 4.02687 14.4286 3.73073C14.4148 3.36239 14.3788 3.02351 14.2456 2.70197C13.9897 2.08429 13.499 1.59355 12.8813 1.3377C12.6151 1.22744 12.3405 1.18469 12.0499 1.16485C11.7706 1.1458 11.4305 1.14581 11.0231 1.14581H10.9768ZM9.64479 2.60803C9.71552 2.57874 9.82297 2.55172 10.0436 2.53666C10.2705 2.52119 10.5634 2.52081 11 2.52081C11.4365 2.52081 11.7294 2.52119 11.9563 2.53666C12.1769 2.55172 12.2844 2.57874 12.3551 2.60803C12.6359 2.72433 12.8589 2.94739 12.9752 3.22816C13.0119 3.31672 13.0423 3.45478 13.0546 3.78212C13.0817 4.50847 13.4566 5.20783 14.1222 5.59209C14.7878 5.97635 15.5809 5.95135 16.2235 5.6117C16.5131 5.45864 16.6479 5.41594 16.7429 5.40343C17.0442 5.36376 17.3489 5.44541 17.59 5.63041C17.6507 5.67701 17.7279 5.75655 17.8512 5.94013C17.9781 6.12884 18.1249 6.38236 18.3431 6.7604C18.5614 7.13844 18.7075 7.39233 18.8076 7.59652C18.9049 7.79515 18.9352 7.90171 18.9452 7.97761C18.9848 8.2789 18.9032 8.58361 18.7182 8.82471C18.6598 8.90077 18.5555 8.99614 18.278 9.17044C17.6626 9.5571 17.2444 10.2314 17.2444 10.9999C17.2444 11.7684 17.6626 12.4428 18.278 12.8295C18.5554 13.0038 18.6597 13.0991 18.7181 13.1752C18.9031 13.4163 18.9847 13.721 18.9451 14.0223C18.9351 14.0982 18.9048 14.2047 18.8075 14.4034C18.7075 14.6076 18.5613 14.8615 18.343 15.2395C18.1248 15.6175 17.978 15.8711 17.8512 16.0598C17.7278 16.2433 17.6507 16.3229 17.5899 16.3695C17.3488 16.5545 17.0441 16.6361 16.7428 16.5965C16.6478 16.584 16.513 16.5413 16.2234 16.3882C15.5808 16.0486 14.7876 16.0236 14.1221 16.4079C13.4566 16.7922 13.0817 17.4915 13.0546 18.2178C13.0423 18.5452 13.0119 18.6832 12.9752 18.7718C12.8589 19.0526 12.6359 19.2756 12.3551 19.3919C12.2844 19.4212 12.1769 19.4482 11.9563 19.4633C11.7294 19.4788 11.4365 19.4791 11 19.4791C10.5634 19.4791 10.2705 19.4788 10.0436 19.4633C9.82297 19.4482 9.71552 19.4212 9.64479 19.3919C9.36403 19.2756 9.14097 19.0526 9.02467 18.7718C8.98799 18.6832 8.95758 18.5452 8.94534 18.2178C8.91817 17.4915 8.54326 16.7921 7.8777 16.4079C7.21214 16.0236 6.41903 16.0486 5.77641 16.3883C5.4868 16.5413 5.35203 16.584 5.25699 16.5965C4.9557 16.6362 4.65099 16.5546 4.40989 16.3696C4.34916 16.323 4.27204 16.2434 4.14866 16.0598C4.02184 15.8711 3.87504 15.6176 3.65678 15.2396C3.43852 14.8615 3.29236 14.6076 3.19234 14.4034C3.09505 14.2048 3.06473 14.0982 3.05473 14.0224C3.01507 13.7211 3.09672 13.4163 3.28171 13.1753C3.34007 13.0992 3.44443 13.0038 3.72181 12.8296C4.33724 12.4429 4.75546 11.7685 4.7555 11C4.75554 10.2315 4.33731 9.55703 3.72182 9.1703C3.4445 8.99605 3.34015 8.90069 3.2818 8.82465C3.09681 8.58355 3.01516 8.27884 3.05482 7.97755C3.06482 7.90165 3.09514 7.79509 3.19243 7.59646C3.29245 7.39227 3.43861 7.13837 3.65687 6.76033C3.87513 6.3823 4.02193 6.12877 4.14875 5.94006C4.27213 5.75649 4.34925 5.67695 4.40998 5.63034C4.65108 5.44534 4.95579 5.3637 5.25708 5.40336C5.35213 5.41588 5.48691 5.45858 5.77655 5.61166C6.41913 5.9513 7.21221 5.9763 7.87774 5.59206C8.54328 5.20782 8.91817 4.50849 8.94533 3.78216C8.95758 3.45479 8.98799 3.31672 9.02467 3.22816C9.14097 2.94739 9.36403 2.72433 9.64479 2.60803Z" fill="#969DA9"/>
</svg>
